<?xml version="1.0" standalone="no"?>
<!DOCTYPE svg PUBLIC "-//W3C//DTD SVG 20010904//EN"
 "http://www.w3.org/TR/2001/REC-SVG-20010904/DTD/svg10.dtd">
<svg version="1.0" xmlns="http://www.w3.org/2000/svg"
 width="310.000000pt" height="308.000000pt" viewBox="0 0 310.000000 308.000000"
 preserveAspectRatio="xMidYMid meet">

<g transform="translate(0.000000,308.000000) scale(0.100000,-0.100000)"
fill="#000000" stroke="none">
<path d="M2125 2204 l-155 -156 -102 27 c-142 38 -321 52 -444 37 -326 -41
-645 -191 -936 -439 -93 -80 -98 -87 -98 -139 0 -27 9 -43 43 -76 112 -109
302 -243 469 -328 l98 -51 -135 -136 c-143 -143 -158 -169 -117 -206 40 -37
61 -24 225 139 l157 157 72 -21 c328 -95 654 -55 1006 122 150 76 342 211 464
327 32 30 38 42 38 77 0 36 -6 48 -42 84 -113 109 -278 226 -451 318 l-118 62
126 127 c69 69 130 133 135 141 26 40 -4 90 -53 90 -21 0 -59 -33 -182 -156z
m-399 -289 c42 -8 79 -17 82 -20 3 -3 -7 -19 -23 -35 l-28 -30 -32 20 c-18 11
-65 27 -104 36 -125 28 -233 -5 -327 -102 -106 -108 -130 -269 -61 -404 l23
-45 -52 -54 -52 -55 -48 18 c-122 46 -354 185 -447 267 l-37 34 82 61 c142
105 267 176 421 238 77 31 225 71 292 79 77 10 241 6 311 -8z m361 -120 c120
-56 391 -233 393 -256 0 -3 -37 -32 -82 -65 -363 -262 -701 -365 -1017 -309
-46 8 -86 17 -89 20 -3 3 7 18 22 33 l27 29 47 -24 c217 -107 469 19 512 255
13 72 3 143 -31 222 l-22 51 49 50 c57 58 55 59 191 -6z"/>
</g>
</svg>
