<?xml version="1.0" standalone="no"?>
<!DOCTYPE svg PUBLIC "-//W3C//DTD SVG 20010904//EN"
 "http://www.w3.org/TR/2001/REC-SVG-20010904/DTD/svg10.dtd">
<svg version="1.0" xmlns="http://www.w3.org/2000/svg"
 width="850.000000pt" height="850.000000pt" viewBox="0 0 850.000000 850.000000"
 preserveAspectRatio="xMidYMid meet">

<g transform="translate(0.000000,850.000000) scale(0.100000,-0.100000)"
fill="#000000" stroke="none">
<path d="M3990 6383 c-52 -2 -99 -8 -104 -13 -6 -6 -38 -10 -73 -10 -35 0 -63
-4 -63 -9 0 -5 -43 -12 -95 -16 -52 -4 -97 -11 -101 -16 -3 -5 -18 -9 -35 -9
-16 0 -29 -4 -29 -9 0 -5 -29 -12 -65 -16 -36 -3 -67 -11 -70 -16 -4 -5 -19
-9 -36 -9 -16 0 -29 -4 -29 -9 0 -5 -29 -12 -65 -16 -36 -3 -67 -11 -70 -16
-4 -5 -17 -9 -31 -9 -13 0 -24 -4 -24 -9 0 -5 -18 -11 -40 -15 -23 -3 -50 -11
-60 -16 -11 -6 -29 -14 -40 -20 -10 -5 -37 -13 -60 -16 -22 -4 -40 -10 -40
-15 0 -5 -11 -9 -24 -9 -14 0 -28 -4 -31 -10 -3 -5 -14 -10 -23 -10 -9 0 -30
-7 -46 -15 -15 -8 -37 -15 -47 -15 -11 0 -19 -4 -19 -10 0 -5 -18 -13 -40 -16
-22 -4 -40 -9 -40 -13 0 -7 -45 -27 -83 -37 -15 -3 -30 -10 -33 -15 -3 -5 -16
-9 -30 -9 -13 0 -24 -4 -24 -9 0 -5 -14 -12 -30 -16 -17 -4 -30 -11 -30 -16 0
-5 -9 -9 -20 -9 -11 0 -20 -4 -20 -9 0 -5 -13 -12 -30 -16 -17 -4 -30 -11 -30
-16 0 -5 -11 -9 -25 -9 -14 0 -25 -4 -25 -9 0 -5 -16 -12 -35 -15 -19 -4 -35
-11 -35 -16 0 -6 -7 -10 -15 -10 -8 0 -15 -4 -15 -9 0 -5 -16 -12 -35 -15 -19
-4 -35 -10 -35 -14 0 -4 -14 -13 -30 -20 -17 -8 -36 -19 -43 -26 -15 -14 -81
-46 -96 -46 -6 0 -11 -3 -11 -8 0 -7 -72 -42 -88 -42 -4 0 -14 -9 -22 -20 -8
-10 -27 -22 -42 -25 -15 -4 -28 -11 -28 -16 0 -5 -9 -9 -20 -9 -11 0 -23 -7
-26 -15 -4 -8 -15 -15 -25 -15 -10 0 -19 -4 -19 -9 0 -5 -8 -11 -17 -15 -20
-6 -55 -28 -63 -38 -3 -3 -18 -10 -33 -13 -16 -4 -34 -16 -40 -26 -7 -11 -20
-19 -29 -19 -9 0 -21 -6 -25 -12 -9 -14 -31 -29 -83 -55 -37 -18 -37 -19 -86
-58 -18 -14 -37 -25 -43 -25 -7 0 -14 -7 -17 -15 -4 -8 -14 -15 -24 -15 -10 0
-20 -7 -24 -15 -3 -8 -12 -15 -19 -15 -8 0 -22 -9 -32 -20 -10 -11 -24 -20
-32 -20 -7 0 -16 -7 -19 -15 -4 -8 -14 -15 -24 -15 -10 0 -20 -7 -24 -15 -3
-8 -11 -15 -19 -15 -7 0 -24 -11 -37 -25 -13 -14 -27 -25 -32 -25 -5 0 -20
-11 -34 -25 -14 -14 -30 -25 -37 -25 -7 0 -21 -11 -31 -25 -10 -14 -24 -25
-31 -25 -6 0 -22 -11 -35 -25 -13 -14 -28 -25 -35 -25 -6 0 -17 -9 -25 -20 -8
-11 -20 -20 -27 -20 -7 0 -23 -11 -37 -25 -14 -14 -29 -25 -34 -25 -5 0 -19
-11 -32 -25 -13 -14 -28 -25 -34 -25 -6 0 -24 -14 -40 -30 -16 -17 -34 -30
-40 -30 -6 0 -27 -18 -46 -40 -19 -22 -40 -40 -46 -40 -5 0 -25 -16 -44 -35
-19 -19 -38 -35 -43 -35 -16 0 -163 -156 -180 -192 -23 -49 -23 -167 0 -216
17 -36 164 -192 180 -192 5 0 24 -16 43 -35 19 -19 39 -35 44 -35 6 0 27 -18
46 -40 19 -22 40 -40 46 -40 6 0 24 -13 40 -30 16 -16 34 -30 40 -30 6 0 21
-11 34 -25 13 -14 27 -25 32 -25 5 0 20 -11 34 -25 14 -14 30 -25 37 -25 7 0
21 -11 31 -25 10 -14 24 -25 31 -25 6 0 20 -9 30 -20 10 -11 24 -20 30 -20 7
0 21 -11 31 -25 10 -14 24 -25 31 -25 7 0 23 -11 37 -25 14 -14 29 -25 34 -25
5 0 19 -11 32 -25 13 -14 30 -25 37 -25 8 0 16 -7 19 -15 4 -8 14 -15 24 -15
10 0 20 -7 24 -15 3 -8 12 -15 19 -15 8 0 22 -9 32 -20 10 -11 24 -20 32 -20
7 0 16 -7 19 -15 4 -8 14 -15 24 -15 10 0 20 -7 24 -15 3 -8 10 -15 17 -15 6
0 25 -11 43 -25 49 -39 49 -40 86 -58 52 -26 74 -41 83 -54 4 -7 16 -13 25
-13 9 0 22 -8 29 -19 6 -10 24 -22 40 -26 15 -3 30 -10 33 -13 8 -10 43 -32
63 -38 9 -4 17 -10 17 -15 0 -5 9 -9 19 -9 10 0 21 -7 25 -15 3 -8 15 -15 26
-15 11 0 20 -3 20 -8 0 -7 30 -25 63 -38 9 -3 17 -10 17 -15 0 -5 4 -9 10 -9
16 0 90 -34 90 -42 0 -3 14 -9 30 -13 17 -4 36 -15 43 -26 6 -10 18 -19 25
-19 16 0 75 -31 80 -42 2 -4 19 -10 38 -14 19 -3 34 -10 34 -15 0 -5 7 -9 15
-9 8 0 15 -4 15 -10 0 -5 16 -12 35 -16 19 -3 35 -10 35 -15 0 -5 11 -9 25 -9
14 0 25 -4 25 -9 0 -5 13 -12 30 -16 17 -4 30 -11 30 -16 0 -5 9 -9 20 -9 11
0 20 -4 20 -9 0 -5 14 -12 30 -16 17 -4 30 -11 30 -16 0 -5 11 -9 24 -9 14 0
27 -4 30 -9 3 -5 18 -12 33 -15 40 -10 83 -30 83 -38 0 -4 18 -11 40 -14 22
-4 40 -10 40 -15 0 -5 9 -9 20 -9 11 0 20 -4 20 -9 0 -5 20 -12 45 -15 24 -4
47 -11 50 -17 4 -5 17 -9 31 -9 13 0 24 -4 24 -9 0 -5 18 -11 40 -15 39 -6 49
-10 97 -34 12 -7 40 -15 63 -18 22 -4 40 -10 40 -15 0 -5 11 -9 24 -9 14 0 27
-4 31 -9 3 -5 34 -13 70 -16 36 -4 65 -11 65 -16 0 -5 13 -9 29 -9 17 0 32 -4
36 -9 3 -5 34 -13 70 -16 36 -4 65 -11 65 -16 0 -5 13 -9 29 -9 17 0 32 -4 35
-9 4 -5 49 -12 101 -16 52 -4 95 -11 95 -16 0 -5 28 -9 63 -9 35 0 66 -3 69
-6 24 -23 711 -24 734 -1 4 4 36 7 71 7 35 0 63 4 63 9 0 5 43 12 95 16 52 4
97 11 101 16 3 5 18 9 35 9 16 0 29 4 29 9 0 5 29 12 65 16 36 3 67 11 70 16
4 5 19 9 36 9 16 0 29 4 29 9 0 5 29 12 65 16 36 3 67 11 70 16 4 5 17 9 31 9
13 0 24 4 24 9 0 5 18 11 40 15 23 3 50 11 60 16 11 6 29 14 40 20 10 5 37 13
60 16 22 4 40 10 40 15 0 5 11 9 24 9 14 0 27 4 31 9 3 6 26 13 50 17 25 3 45
10 45 15 0 5 9 9 20 9 11 0 20 4 20 9 0 5 18 11 40 15 22 3 40 10 40 14 0 8
43 28 83 38 15 3 30 10 33 15 3 5 16 9 30 9 13 0 24 4 24 9 0 5 14 12 30 16
17 4 30 11 30 16 0 5 9 9 20 9 11 0 20 4 20 9 0 5 14 12 30 16 17 4 30 11 30
16 0 5 11 9 25 9 14 0 25 4 25 9 0 5 16 12 35 15 19 4 35 11 35 16 0 6 7 10
15 10 8 0 15 4 15 9 0 5 16 12 35 15 19 4 35 10 35 14 0 4 14 13 30 20 17 8
36 19 43 26 15 14 81 46 96 46 6 0 11 3 11 8 0 7 72 42 88 42 4 0 14 9 22 20
8 10 27 22 42 25 15 4 28 11 28 16 0 5 9 9 20 9 11 0 23 7 26 15 4 8 15 15 25
15 10 0 19 4 19 9 0 5 8 11 18 15 19 6 54 28 62 38 3 3 18 10 33 13 16 4 34
16 40 26 7 11 20 19 29 19 9 0 21 6 25 13 9 13 31 28 83 54 19 9 40 21 45 25
6 4 24 18 40 31 17 13 38 26 48 30 9 3 17 11 17 17 0 5 9 10 19 10 10 0 21 7
25 15 3 8 12 15 19 15 8 0 22 9 32 20 10 11 24 20 32 20 7 0 16 7 19 15 4 8
14 15 24 15 10 0 20 7 24 15 3 8 11 15 19 15 7 0 24 11 37 25 13 14 27 25 32
25 5 0 20 11 34 25 14 14 30 25 37 25 7 0 21 11 31 25 10 14 24 25 31 25 6 0
20 9 30 20 10 11 24 20 30 20 7 0 21 11 31 25 10 14 24 25 31 25 7 0 23 11 37
25 14 14 29 25 34 25 5 0 19 11 32 25 13 14 28 25 34 25 6 0 28 18 49 40 20
22 43 40 51 40 7 0 23 14 36 30 13 17 28 30 35 30 6 0 26 16 45 35 19 19 38
35 43 35 16 0 163 156 180 192 23 49 23 167 0 216 -17 36 -164 192 -180 192
-5 0 -24 16 -43 35 -19 19 -39 35 -44 35 -6 0 -27 18 -46 40 -19 22 -40 40
-46 40 -6 0 -24 13 -40 30 -16 16 -34 30 -40 30 -6 0 -21 11 -34 25 -13 14
-27 25 -32 25 -5 0 -20 11 -34 25 -14 14 -30 25 -37 25 -7 0 -21 11 -31 25
-10 14 -24 25 -31 25 -6 0 -20 9 -30 20 -10 11 -24 20 -30 20 -7 0 -21 11 -31
25 -10 14 -24 25 -31 25 -7 0 -23 11 -37 25 -14 14 -29 25 -34 25 -5 0 -19 11
-32 25 -13 14 -30 25 -37 25 -8 0 -16 7 -19 15 -4 8 -14 15 -24 15 -10 0 -20
7 -24 15 -3 8 -12 15 -19 15 -8 0 -22 9 -32 20 -10 11 -24 20 -32 20 -7 0 -16
7 -19 15 -4 8 -14 15 -24 15 -10 0 -20 7 -24 15 -3 8 -10 15 -17 15 -6 0 -25
11 -43 25 -49 39 -49 40 -86 58 -52 26 -74 41 -83 55 -4 6 -16 12 -25 12 -9 0
-22 8 -29 19 -6 10 -24 22 -40 26 -15 3 -30 10 -33 13 -8 10 -43 32 -62 38
-10 4 -18 10 -18 15 0 5 -9 9 -19 9 -10 0 -21 7 -25 15 -3 8 -15 15 -26 15
-11 0 -20 4 -20 9 0 5 -13 12 -28 16 -15 3 -34 15 -42 25 -8 11 -18 20 -22 20
-16 0 -88 35 -88 42 0 5 -5 8 -11 8 -15 0 -81 32 -96 46 -7 7 -26 18 -43 26
-16 7 -30 16 -30 20 0 4 -16 10 -35 14 -19 3 -35 10 -35 15 0 5 -7 9 -15 9 -8
0 -15 4 -15 10 0 5 -16 12 -35 16 -19 3 -35 10 -35 15 0 5 -11 9 -25 9 -14 0
-25 4 -25 9 0 5 -13 12 -30 16 -16 4 -30 11 -30 16 0 5 -9 9 -20 9 -11 0 -20
4 -20 9 0 5 -13 12 -30 16 -16 4 -30 11 -30 16 0 5 -11 9 -24 9 -14 0 -27 4
-30 9 -3 5 -18 12 -33 15 -38 10 -83 30 -83 37 0 4 -18 9 -40 13 -22 3 -40 11
-40 16 0 6 -9 10 -20 10 -11 0 -20 4 -20 9 0 5 -20 12 -45 15 -24 4 -47 11
-50 17 -4 5 -17 9 -31 9 -13 0 -24 4 -24 9 0 5 -18 11 -40 15 -23 3 -51 11
-63 18 -48 24 -58 28 -97 34 -22 4 -40 10 -40 15 0 5 -11 9 -24 9 -14 0 -27 4
-31 9 -3 5 -34 13 -70 16 -36 4 -65 11 -65 16 0 5 -13 9 -29 9 -17 0 -32 4
-36 9 -3 5 -34 13 -70 16 -36 4 -65 11 -65 16 0 5 -13 9 -29 9 -17 0 -32 4
-35 9 -4 5 -49 12 -101 16 -52 4 -95 11 -95 16 0 5 -28 9 -63 9 -35 0 -67 4
-73 10 -10 10 -463 20 -624 13z m572 -611 c7 -7 25 -12 40 -12 15 0 28 -4 28
-9 0 -4 27 -11 60 -15 33 -4 60 -11 60 -16 0 -6 11 -10 25 -10 14 0 25 -4 25
-9 0 -5 18 -11 40 -15 22 -3 40 -10 40 -14 0 -8 73 -42 90 -42 6 0 10 -3 10
-8 0 -4 18 -15 40 -25 22 -9 40 -21 40 -27 0 -5 9 -10 19 -10 10 0 21 -7 25
-15 3 -8 13 -15 22 -15 9 0 25 -11 36 -25 11 -14 24 -25 30 -25 6 0 28 -18 50
-40 22 -22 45 -40 50 -40 12 0 108 -96 108 -108 0 -5 18 -28 40 -50 22 -22 40
-44 40 -50 0 -6 11 -19 25 -30 14 -11 25 -27 25 -36 0 -9 7 -19 15 -22 8 -4
15 -15 15 -25 0 -10 4 -19 9 -19 5 0 12 -8 15 -17 13 -33 31 -63 38 -63 5 0 8
-4 8 -10 0 -17 34 -90 42 -90 4 0 11 -18 14 -40 4 -22 10 -40 15 -40 5 0 9
-11 9 -25 0 -14 4 -25 10 -25 5 0 12 -27 16 -60 4 -33 11 -60 15 -60 5 0 9
-13 9 -28 0 -15 6 -34 13 -41 9 -9 12 -85 12 -311 0 -226 -3 -302 -12 -311 -7
-7 -13 -26 -13 -41 0 -15 -4 -28 -9 -28 -4 0 -11 -27 -15 -60 -4 -33 -11 -60
-16 -60 -6 0 -10 -11 -10 -25 0 -14 -4 -25 -9 -25 -5 0 -11 -18 -15 -40 -3
-22 -10 -40 -14 -40 -8 0 -42 -73 -42 -90 0 -6 -4 -10 -9 -10 -5 0 -12 -8 -15
-17 -13 -33 -31 -63 -38 -63 -5 0 -8 -9 -8 -19 0 -10 -7 -21 -15 -25 -8 -3
-15 -13 -15 -22 0 -9 -11 -25 -25 -36 -14 -11 -25 -24 -25 -30 0 -6 -18 -28
-40 -50 -22 -22 -40 -45 -40 -50 0 -12 -96 -108 -108 -108 -5 0 -28 -18 -50
-40 -22 -22 -44 -40 -50 -40 -6 0 -19 -11 -30 -25 -11 -14 -27 -25 -36 -25 -9
0 -19 -7 -22 -15 -4 -8 -15 -15 -25 -15 -10 0 -19 -4 -19 -9 0 -5 -8 -12 -17
-15 -33 -13 -63 -31 -63 -38 0 -5 -4 -8 -10 -8 -17 0 -90 -34 -90 -42 0 -4
-18 -11 -40 -14 -22 -4 -40 -10 -40 -15 0 -5 -11 -9 -25 -9 -14 0 -25 -4 -25
-10 0 -5 -27 -12 -60 -16 -33 -4 -60 -11 -60 -15 0 -5 -13 -9 -28 -9 -15 0
-33 -5 -38 -10 -6 -6 -75 -14 -152 -17 -78 -3 -142 -10 -142 -15 0 -4 -9 -8
-20 -8 -11 0 -20 4 -20 8 0 5 -64 12 -142 15 -77 3 -146 11 -152 17 -5 5 -23
10 -38 10 -15 0 -28 4 -28 9 0 4 -27 11 -60 15 -33 4 -60 11 -60 16 0 6 -11
10 -25 10 -14 0 -25 4 -25 9 0 5 -18 11 -40 15 -22 3 -40 10 -40 14 0 8 -73
42 -90 42 -6 0 -10 3 -10 8 0 7 -30 25 -62 38 -10 3 -18 10 -18 15 0 5 -9 9
-19 9 -10 0 -21 7 -25 15 -3 8 -13 15 -22 15 -9 0 -25 11 -36 25 -11 14 -24
25 -30 25 -6 0 -28 18 -50 40 -22 22 -45 40 -50 40 -12 0 -108 96 -108 108 0
5 -18 28 -40 50 -22 22 -40 44 -40 50 0 6 -11 19 -25 30 -14 11 -25 27 -25 36
0 9 -7 19 -15 22 -8 4 -15 15 -15 25 0 10 -4 19 -9 19 -5 0 -12 8 -15 18 -13
32 -31 62 -38 62 -5 0 -8 4 -8 10 0 17 -34 90 -42 90 -4 0 -11 18 -14 40 -4
22 -10 40 -15 40 -5 0 -9 11 -9 25 0 14 -4 25 -10 25 -5 0 -12 27 -16 60 -4
33 -11 60 -15 60 -5 0 -9 13 -9 28 0 15 -6 34 -12 40 -10 10 -13 86 -13 312 0
226 3 302 13 312 6 6 12 25 12 40 0 15 4 28 9 28 4 0 11 27 15 60 4 33 11 60
16 60 6 0 10 11 10 25 0 14 4 25 9 25 5 0 11 18 15 40 3 22 10 40 14 40 8 0
42 73 42 90 0 6 4 10 9 10 5 0 12 8 15 18 13 32 31 62 38 62 5 0 8 9 8 19 0
10 7 21 15 25 8 3 15 13 15 22 0 9 11 25 25 36 14 11 25 24 25 30 0 6 18 28
40 50 22 22 40 45 40 50 0 12 96 108 108 108 5 0 28 18 50 40 22 22 44 40 50
40 6 0 19 11 30 25 11 14 27 25 36 25 9 0 19 7 22 15 4 8 15 15 25 15 10 0 19
4 19 9 0 5 8 12 18 15 32 13 62 31 62 38 0 5 4 8 10 8 17 0 90 34 90 42 0 4
18 11 40 14 22 4 40 10 40 15 0 5 11 9 25 9 14 0 25 4 25 10 0 5 27 12 60 16
33 4 60 11 60 15 0 5 13 9 28 9 15 0 32 4 38 9 15 16 84 19 356 17 188 -1 261
-5 270 -14z m-2055 -388 c3 -9 -3 -21 -16 -30 -11 -8 -21 -22 -21 -30 0 -8 -7
-17 -15 -20 -8 -4 -15 -15 -15 -25 0 -10 -4 -19 -9 -19 -5 0 -12 -13 -16 -30
-4 -16 -11 -30 -16 -30 -5 0 -9 -9 -9 -20 0 -11 -4 -20 -9 -20 -5 0 -12 -13
-16 -30 -4 -16 -11 -30 -16 -30 -5 0 -9 -9 -9 -20 0 -11 -4 -20 -9 -20 -5 0
-11 -18 -15 -40 -3 -22 -11 -40 -16 -40 -6 0 -10 -11 -10 -25 0 -14 -4 -25 -9
-25 -5 0 -12 -22 -16 -50 -4 -27 -11 -50 -16 -50 -5 0 -9 -16 -9 -35 0 -19 -4
-35 -9 -35 -6 0 -13 -32 -17 -70 -4 -39 -11 -73 -15 -76 -5 -3 -9 -29 -9 -59
0 -30 -4 -57 -10 -60 -14 -8 -14 -482 0 -490 6 -3 10 -30 10 -60 0 -30 4 -56
9 -59 4 -3 11 -37 15 -76 4 -38 11 -70 17 -70 5 0 9 -16 9 -35 0 -19 4 -35 9
-35 5 0 12 -22 16 -50 4 -27 11 -50 16 -50 5 0 9 -11 9 -25 0 -14 4 -25 10
-25 5 0 13 -18 16 -40 4 -22 10 -40 15 -40 5 0 9 -9 9 -20 0 -11 4 -20 9 -20
5 0 12 -13 16 -30 4 -16 11 -30 16 -30 5 0 9 -9 9 -20 0 -11 4 -20 9 -20 5 0
12 -13 16 -30 4 -17 11 -30 16 -30 5 0 9 -9 9 -20 0 -11 4 -20 10 -20 5 0 17
-17 27 -37 9 -21 21 -41 26 -44 5 -4 5 -9 -1 -12 -11 -7 -62 14 -62 26 0 4 -4
7 -10 7 -17 0 -90 34 -90 42 0 5 -4 8 -10 8 -16 0 -90 34 -90 42 0 3 -13 9
-30 13 -16 4 -30 11 -30 16 0 5 -9 9 -20 9 -11 0 -20 4 -20 9 0 5 -8 12 -17
15 -33 12 -63 31 -63 38 0 4 -16 10 -35 14 -19 3 -35 10 -35 15 0 5 -7 9 -15
9 -8 0 -15 5 -15 10 0 6 -6 10 -14 10 -8 0 -21 6 -28 13 -7 7 -30 21 -50 30
-21 10 -38 22 -38 27 0 6 -9 10 -20 10 -11 0 -20 4 -20 9 0 5 -8 12 -17 15
-33 13 -63 31 -63 38 0 5 -6 8 -14 8 -8 0 -21 6 -28 13 -16 14 -47 35 -68 44
-8 4 -22 14 -31 24 -8 10 -27 21 -41 24 -15 4 -34 15 -44 26 -9 10 -23 19 -31
19 -7 0 -16 7 -19 15 -4 8 -14 15 -24 15 -10 0 -20 7 -24 15 -3 8 -11 15 -19
15 -7 0 -24 11 -37 25 -13 14 -29 25 -37 25 -7 0 -13 4 -13 9 0 5 -10 13 -22
17 -13 4 -30 15 -39 25 -9 11 -21 19 -26 19 -5 0 -20 11 -33 25 -13 14 -30 25
-37 25 -8 0 -16 7 -19 15 -4 8 -14 15 -24 15 -10 0 -20 7 -24 15 -3 8 -11 15
-19 15 -7 0 -24 11 -37 25 -13 14 -28 25 -33 25 -5 0 -24 16 -43 35 -18 19
-38 35 -44 35 -6 0 -21 11 -34 25 -13 14 -28 25 -33 25 -5 0 -20 11 -33 25
-13 14 -27 25 -32 25 -15 0 -48 34 -48 50 0 16 33 50 48 50 5 0 19 11 32 25
13 14 28 25 33 25 5 0 20 11 33 25 13 14 28 25 34 25 6 0 26 16 44 35 19 19
38 35 43 35 5 0 20 11 33 25 13 14 30 25 37 25 8 0 16 7 19 15 4 8 14 15 24
15 10 0 20 7 24 15 3 8 11 15 19 15 7 0 24 11 37 25 13 14 28 25 33 25 5 0 17
8 26 19 9 10 26 21 39 25 12 4 22 12 22 17 0 5 6 9 13 9 8 0 24 11 37 25 13
14 30 25 37 25 8 0 16 7 19 15 4 8 14 15 24 15 10 0 20 7 24 15 3 8 12 15 19
15 8 0 22 9 31 19 10 11 29 22 44 26 14 3 33 14 41 24 9 10 23 20 31 24 21 9
52 30 68 45 7 6 20 12 28 12 8 0 14 4 14 9 0 5 8 12 18 15 32 13 62 31 62 38
0 5 9 8 20 8 11 0 20 4 20 10 0 5 17 17 38 27 20 9 43 23 50 30 7 7 20 13 28
13 8 0 14 5 14 10 0 6 7 10 15 10 8 0 15 4 15 9 0 5 14 11 31 15 18 3 39 15
48 25 10 11 29 23 44 26 15 4 27 11 27 16 0 5 9 9 20 9 11 0 20 4 20 9 0 5 14
12 30 16 17 4 30 10 30 13 0 8 74 42 90 42 6 0 10 3 10 8 0 8 73 42 90 42 6 0
10 3 10 8 0 7 36 28 53 31 4 0 10 -6 14 -15z m3536 0 c9 -4 17 -10 17 -15 0
-5 4 -9 10 -9 17 0 90 -34 90 -42 0 -5 4 -8 10 -8 16 0 90 -34 90 -42 0 -3 14
-9 30 -13 17 -4 30 -11 30 -16 0 -5 9 -9 20 -9 11 0 20 -4 20 -9 0 -5 8 -12
18 -15 32 -12 62 -31 62 -38 0 -4 16 -10 35 -14 19 -3 35 -10 35 -15 0 -5 7
-9 15 -9 8 0 15 -4 15 -10 0 -5 6 -10 14 -10 8 0 21 -6 28 -13 7 -7 30 -21 51
-30 20 -10 37 -22 37 -27 0 -6 9 -10 20 -10 11 0 20 -4 20 -9 0 -5 8 -12 18
-15 32 -13 62 -31 62 -38 0 -5 6 -8 14 -8 8 0 21 -6 28 -13 7 -7 20 -16 28
-20 26 -12 54 -31 70 -49 9 -9 28 -20 42 -23 15 -4 34 -15 44 -26 9 -10 23
-19 31 -19 7 0 16 -7 19 -15 4 -8 13 -15 21 -15 7 0 24 -10 36 -22 25 -26 54
-46 80 -54 9 -4 17 -10 17 -14 0 -5 10 -12 23 -16 12 -4 31 -18 43 -31 21 -24
47 -42 92 -62 12 -6 22 -15 22 -21 0 -5 9 -10 19 -10 10 0 21 -7 25 -15 3 -8
11 -15 19 -15 7 0 28 -16 47 -35 19 -19 38 -35 43 -35 5 0 20 -11 33 -25 13
-14 28 -25 34 -25 6 0 21 -11 34 -25 13 -14 28 -25 33 -25 5 0 20 -11 33 -25
13 -14 27 -25 32 -25 15 0 48 -34 48 -50 0 -16 -33 -50 -48 -50 -5 0 -19 -11
-32 -25 -13 -14 -28 -25 -33 -25 -5 0 -20 -11 -33 -25 -13 -14 -28 -25 -34
-25 -6 0 -26 -16 -44 -35 -19 -19 -38 -35 -43 -35 -5 0 -20 -11 -33 -25 -13
-14 -30 -25 -37 -25 -8 0 -16 -7 -19 -15 -4 -8 -14 -15 -24 -15 -10 0 -20 -7
-24 -15 -3 -8 -11 -15 -19 -15 -7 0 -24 -11 -37 -25 -13 -14 -28 -25 -33 -25
-5 0 -17 -8 -26 -19 -9 -10 -26 -21 -38 -25 -13 -4 -23 -12 -23 -17 0 -5 -6
-9 -13 -9 -8 0 -24 -11 -37 -25 -13 -14 -30 -25 -37 -25 -8 0 -16 -7 -19 -15
-4 -8 -14 -15 -24 -15 -10 0 -20 -7 -24 -15 -3 -8 -12 -15 -19 -15 -8 0 -22
-9 -31 -19 -10 -11 -29 -22 -44 -26 -14 -3 -33 -14 -41 -24 -9 -10 -23 -20
-31 -24 -21 -9 -52 -30 -68 -44 -7 -7 -20 -13 -28 -13 -8 0 -14 -4 -14 -9 0
-5 -8 -12 -17 -15 -33 -13 -63 -31 -63 -38 0 -5 -9 -8 -20 -8 -11 0 -20 -4
-20 -10 0 -5 -17 -17 -37 -27 -21 -9 -44 -23 -51 -30 -7 -7 -20 -13 -28 -13
-8 0 -14 -4 -14 -10 0 -5 -7 -10 -15 -10 -8 0 -15 -4 -15 -9 0 -5 -16 -12 -35
-15 -19 -4 -35 -10 -35 -14 0 -7 -30 -26 -62 -38 -10 -3 -18 -10 -18 -15 0 -5
-9 -9 -20 -9 -11 0 -20 -4 -20 -9 0 -5 -13 -12 -30 -16 -16 -4 -30 -10 -30
-13 0 -8 -74 -42 -90 -42 -6 0 -10 -3 -10 -8 0 -8 -73 -42 -90 -42 -6 0 -10
-3 -10 -7 0 -12 -51 -33 -62 -26 -6 3 -6 8 -1 12 5 3 17 23 26 44 10 20 22 37
27 37 6 0 10 9 10 20 0 11 4 20 9 20 5 0 12 13 16 30 4 16 11 30 16 30 5 0 9
9 9 20 0 11 4 20 9 20 5 0 12 14 16 30 4 17 11 30 16 30 5 0 9 9 9 20 0 11 4
20 9 20 5 0 11 18 15 40 3 22 11 40 16 40 6 0 10 11 10 25 0 14 4 25 9 25 5 0
12 23 16 50 4 28 11 50 16 50 5 0 9 16 9 35 0 19 4 35 9 35 6 0 13 32 17 70 4
39 11 73 15 76 5 3 9 29 9 59 0 30 5 57 10 60 6 4 10 97 10 245 0 148 -4 241
-10 245 -5 3 -10 30 -10 60 0 30 -4 56 -9 59 -4 3 -11 37 -15 76 -4 38 -11 70
-17 70 -5 0 -9 16 -9 35 0 19 -4 35 -9 35 -5 0 -12 23 -16 50 -4 28 -11 50
-16 50 -5 0 -9 11 -9 25 0 14 -4 25 -9 25 -5 0 -12 13 -16 30 -4 16 -11 32
-16 35 -5 4 -9 17 -9 31 0 13 -4 24 -9 24 -5 0 -12 14 -16 30 -4 17 -11 30
-16 30 -5 0 -9 9 -9 20 0 11 -4 20 -9 20 -5 0 -12 14 -16 30 -4 17 -11 30 -16
30 -5 0 -9 9 -9 20 0 11 -5 20 -10 20 -6 0 -18 18 -27 40 -10 22 -21 40 -26
40 -4 0 -5 5 -2 11 4 5 12 8 18 5 7 -4 20 -9 30 -12z"/>
<path d="M4053 5103 c-18 -2 -33 -8 -33 -14 0 -5 -11 -9 -24 -9 -14 0 -28 -4
-31 -10 -3 -5 -13 -10 -21 -10 -19 0 -94 -33 -94 -42 0 -3 -13 -9 -29 -13 -15
-3 -38 -17 -50 -30 -11 -14 -25 -25 -31 -25 -12 0 -190 -178 -190 -190 0 -6
-11 -20 -25 -31 -13 -12 -27 -35 -30 -50 -4 -16 -10 -29 -13 -29 -9 0 -42 -75
-42 -94 0 -8 -4 -18 -10 -21 -5 -3 -10 -17 -10 -30 0 -13 -6 -25 -12 -27 -10
-4 -13 -58 -13 -228 0 -170 3 -224 13 -227 6 -3 12 -15 12 -28 0 -13 5 -27 10
-30 6 -3 10 -13 10 -21 0 -19 33 -94 42 -94 3 0 9 -13 13 -29 3 -15 17 -38 30
-50 14 -11 25 -25 25 -31 0 -12 178 -190 190 -190 6 0 20 -11 31 -25 12 -13
35 -27 50 -30 16 -4 29 -10 29 -13 0 -9 75 -42 94 -42 8 0 18 -4 21 -10 3 -5
17 -10 30 -10 13 0 25 -6 28 -12 3 -10 57 -13 227 -13 170 0 224 3 228 13 2 6
14 12 27 12 13 0 27 5 30 10 3 6 13 10 21 10 19 0 94 33 94 42 0 3 13 9 29 13
15 3 38 17 50 30 11 14 25 25 31 25 12 0 190 178 190 190 0 6 11 20 25 31 13
12 27 35 30 50 4 16 10 29 13 29 9 0 42 75 42 94 0 8 5 18 10 21 6 3 10 17 10
30 0 13 6 25 13 28 9 3 12 57 12 227 0 170 -3 224 -12 228 -7 2 -13 14 -13 27
0 13 -4 27 -10 30 -5 3 -10 13 -10 21 0 19 -33 94 -42 94 -3 0 -9 13 -13 29
-3 15 -17 38 -30 50 -14 11 -25 25 -25 31 0 12 -178 190 -190 190 -6 0 -20 11
-31 25 -12 13 -35 27 -50 30 -16 4 -29 10 -29 13 0 9 -75 42 -94 42 -8 0 -18
5 -21 10 -3 6 -17 10 -30 10 -13 0 -25 6 -27 13 -4 9 -53 12 -199 13 -107 1
-209 0 -226 -3z m289 -290 c22 -22 38 -47 38 -60 0 -13 5 -23 10 -23 6 0 10
-7 10 -15 0 -8 -4 -15 -10 -15 -5 0 -10 -14 -10 -31 0 -23 -9 -41 -32 -62 -27
-26 -42 -32 -93 -35 -33 -2 -64 -8 -69 -13 -6 -5 -20 -9 -33 -9 -13 0 -23 -4
-23 -9 0 -5 -12 -12 -26 -15 -33 -9 -121 -97 -130 -130 -3 -14 -10 -26 -15
-26 -5 0 -9 -10 -9 -23 0 -13 -4 -27 -9 -33 -5 -5 -11 -36 -13 -69 -3 -51 -9
-66 -35 -93 -16 -18 -40 -32 -52 -32 -11 0 -21 -4 -21 -10 0 -5 -11 -10 -25
-10 -14 0 -25 5 -25 10 0 6 -10 10 -22 10 -12 0 -39 17 -60 37 l-38 37 0 93
c0 55 4 93 10 93 6 0 10 11 10 24 0 14 5 28 10 31 6 3 10 13 10 21 0 20 33 94
42 94 5 0 8 7 8 15 0 8 11 25 25 37 14 12 25 26 25 32 0 14 61 76 75 76 6 0
21 11 33 25 12 14 29 25 37 25 8 0 15 3 15 8 0 9 74 42 94 42 8 0 18 5 21 10
3 6 17 10 31 10 13 0 24 5 24 10 0 6 37 10 92 10 l92 0 38 -37z"/>
</g>
</svg>
